<svg width="983" height="284" viewBox="0 0 983 284" fill="none" xmlns="http://www.w3.org/2000/svg">
<rect x="4" y="198" width="196" height="82" fill="#EEEEEE"/>
<rect x="393" y="198" width="196" height="82" fill="#EEEEEE"/>
<rect x="2" y="2" width="200" height="280" rx="2" stroke="black" stroke-opacity="0.1" stroke-width="4"/>
<path fill-rule="evenodd" clip-rule="evenodd" d="M60.3334 56.6958C60.3334 54.3792 62.2292 52.5 64.4667 52.5H139.533C141.817 52.5 143.667 54.3708 143.667 56.6958V115H60.3334V56.6958ZM68.6667 60.8333V106.667H135.333V60.8333H68.6667ZM147.833 119.167H56.1667V127.5H147.833V119.167Z" fill="#001018"/>
<path d="M39.5312 187V171H43.875V183.5H50.3438V187H39.5312ZM56.7559 187H52.0684L57.3496 171H63.2871L68.5684 187H63.8809L60.3809 175.406H60.2559L56.7559 187ZM55.8809 180.688H64.6934V183.937H55.8809V180.688ZM70.6094 187V171H77.5156C78.7031 171 79.7422 171.234 80.6328 171.703C81.5234 172.172 82.2161 172.831 82.7109 173.68C83.2057 174.529 83.4531 175.521 83.4531 176.656C83.4531 177.802 83.1979 178.794 82.6875 179.633C82.1823 180.471 81.4714 181.117 80.5547 181.57C79.6432 182.023 78.5781 182.25 77.3594 182.25H73.2344V178.875H76.4844C76.9948 178.875 77.4297 178.786 77.7891 178.609C78.1536 178.427 78.4323 178.169 78.625 177.836C78.8229 177.503 78.9219 177.109 78.9219 176.656C78.9219 176.198 78.8229 175.807 78.625 175.484C78.4323 175.156 78.1536 174.906 77.7891 174.734C77.4297 174.557 76.9948 174.469 76.4844 174.469H74.9531V187H70.6094ZM85.1094 174.5V171H99.0156V174.5H94.2031V187H89.9219V174.5H85.1094ZM115.898 179C115.898 180.781 115.552 182.284 114.859 183.508C114.167 184.727 113.232 185.651 112.055 186.281C110.878 186.906 109.565 187.219 108.117 187.219C106.659 187.219 105.341 186.904 104.164 186.273C102.992 185.638 102.06 184.711 101.367 183.492C100.68 182.268 100.336 180.771 100.336 179C100.336 177.219 100.68 175.719 101.367 174.5C102.06 173.276 102.992 172.352 104.164 171.727C105.341 171.096 106.659 170.781 108.117 170.781C109.565 170.781 110.878 171.096 112.055 171.727C113.232 172.352 114.167 173.276 114.859 174.5C115.552 175.719 115.898 177.219 115.898 179ZM111.43 179C111.43 178.042 111.302 177.234 111.047 176.578C110.797 175.917 110.424 175.417 109.93 175.078C109.44 174.734 108.836 174.562 108.117 174.562C107.398 174.562 106.792 174.734 106.297 175.078C105.807 175.417 105.435 175.917 105.18 176.578C104.93 177.234 104.805 178.042 104.805 179C104.805 179.958 104.93 180.768 105.18 181.43C105.435 182.086 105.807 182.586 106.297 182.93C106.792 183.268 107.398 183.437 108.117 183.437C108.836 183.437 109.44 183.268 109.93 182.93C110.424 182.586 110.797 182.086 111.047 181.43C111.302 180.768 111.43 179.958 111.43 179ZM118.408 187V171H125.314C126.502 171 127.541 171.234 128.432 171.703C129.322 172.172 130.015 172.831 130.51 173.68C131.005 174.529 131.252 175.521 131.252 176.656C131.252 177.802 130.997 178.794 130.486 179.633C129.981 180.471 129.27 181.117 128.354 181.57C127.442 182.023 126.377 182.25 125.158 182.25H121.033V178.875H124.283C124.794 178.875 125.229 178.786 125.588 178.609C125.952 178.427 126.231 178.169 126.424 177.836C126.622 177.503 126.721 177.109 126.721 176.656C126.721 176.198 126.622 175.807 126.424 175.484C126.231 175.156 125.952 174.906 125.588 174.734C125.229 174.557 124.794 174.469 124.283 174.469H122.752V187H118.408ZM145.229 187.437C143.775 187.432 142.52 187.096 141.463 186.43C140.406 185.763 139.59 184.802 139.018 183.547C138.445 182.292 138.161 180.786 138.166 179.031C138.171 177.271 138.458 175.776 139.025 174.547C139.598 173.318 140.411 172.383 141.463 171.742C142.52 171.102 143.775 170.781 145.229 170.781C146.682 170.781 147.937 171.104 148.994 171.75C150.051 172.391 150.867 173.326 151.439 174.555C152.012 175.784 152.296 177.276 152.291 179.031C152.291 180.797 152.005 182.307 151.432 183.562C150.859 184.818 150.044 185.779 148.986 186.445C147.934 187.107 146.682 187.437 145.229 187.437ZM145.229 183.906C145.979 183.906 146.593 183.516 147.072 182.734C147.557 181.948 147.796 180.714 147.791 179.031C147.791 177.932 147.682 177.034 147.463 176.336C147.244 175.638 146.942 175.122 146.557 174.789C146.171 174.451 145.729 174.281 145.229 174.281C144.479 174.281 143.867 174.661 143.393 175.422C142.919 176.182 142.676 177.385 142.666 179.031C142.661 180.151 142.768 181.073 142.986 181.797C143.205 182.516 143.507 183.047 143.893 183.391C144.283 183.734 144.729 183.906 145.229 183.906ZM162.674 171V187H158.33V175H158.236L154.736 177.094V173.406L158.674 171H162.674Z" fill="black"/>
<rect x="391" y="2" width="200" height="280" rx="2" stroke="black" stroke-opacity="0.1" stroke-width="4"/>
<path fill-rule="evenodd" clip-rule="evenodd" d="M449.333 56.6958C449.333 54.3792 451.229 52.5 453.467 52.5H528.533C530.817 52.5 532.667 54.3708 532.667 56.6958V115H449.333V56.6958ZM457.667 60.8333V106.667H524.333V60.8333H457.667ZM536.833 119.167H445.167V127.5H536.833V119.167Z" fill="#001018"/>
<path d="M427.031 187V171H431.375V183.5H437.844V187H427.031ZM444.256 187H439.568L444.85 171H450.787L456.068 187H451.381L447.881 175.406H447.756L444.256 187ZM443.381 180.688H452.193V183.937H443.381V180.688ZM458.109 187V171H465.016C466.203 171 467.242 171.234 468.133 171.703C469.023 172.172 469.716 172.831 470.211 173.68C470.706 174.529 470.953 175.521 470.953 176.656C470.953 177.802 470.698 178.794 470.188 179.633C469.682 180.471 468.971 181.117 468.055 181.57C467.143 182.023 466.078 182.25 464.859 182.25H460.734V178.875H463.984C464.495 178.875 464.93 178.786 465.289 178.609C465.654 178.427 465.932 178.169 466.125 177.836C466.323 177.503 466.422 177.109 466.422 176.656C466.422 176.198 466.323 175.807 466.125 175.484C465.932 175.156 465.654 174.906 465.289 174.734C464.93 174.557 464.495 174.469 463.984 174.469H462.453V187H458.109ZM472.609 174.5V171H486.516V174.5H481.703V187H477.422V174.5H472.609ZM503.398 179C503.398 180.781 503.052 182.284 502.359 183.508C501.667 184.727 500.732 185.651 499.555 186.281C498.378 186.906 497.065 187.219 495.617 187.219C494.159 187.219 492.841 186.904 491.664 186.273C490.492 185.638 489.56 184.711 488.867 183.492C488.18 182.268 487.836 180.771 487.836 179C487.836 177.219 488.18 175.719 488.867 174.5C489.56 173.276 490.492 172.352 491.664 171.727C492.841 171.096 494.159 170.781 495.617 170.781C497.065 170.781 498.378 171.096 499.555 171.727C500.732 172.352 501.667 173.276 502.359 174.5C503.052 175.719 503.398 177.219 503.398 179ZM498.93 179C498.93 178.042 498.802 177.234 498.547 176.578C498.297 175.917 497.924 175.417 497.43 175.078C496.94 174.734 496.336 174.562 495.617 174.562C494.898 174.562 494.292 174.734 493.797 175.078C493.307 175.417 492.935 175.917 492.68 176.578C492.43 177.234 492.305 178.042 492.305 179C492.305 179.958 492.43 180.768 492.68 181.43C492.935 182.086 493.307 182.586 493.797 182.93C494.292 183.268 494.898 183.437 495.617 183.437C496.336 183.437 496.94 183.268 497.43 182.93C497.924 182.586 498.297 182.086 498.547 181.43C498.802 180.768 498.93 179.958 498.93 179ZM505.908 187V171H512.814C514.002 171 515.041 171.234 515.932 171.703C516.822 172.172 517.515 172.831 518.01 173.68C518.505 174.529 518.752 175.521 518.752 176.656C518.752 177.802 518.497 178.794 517.986 179.633C517.481 180.471 516.77 181.117 515.854 181.57C514.942 182.023 513.877 182.25 512.658 182.25H508.533V178.875H511.783C512.294 178.875 512.729 178.786 513.088 178.609C513.452 178.427 513.731 178.169 513.924 177.836C514.122 177.503 514.221 177.109 514.221 176.656C514.221 176.198 514.122 175.807 513.924 175.484C513.731 175.156 513.452 174.906 513.088 174.734C512.729 174.557 512.294 174.469 511.783 174.469H510.252V187H505.908ZM532.729 187.437C531.275 187.432 530.02 187.096 528.963 186.43C527.906 185.763 527.09 184.802 526.518 183.547C525.945 182.292 525.661 180.786 525.666 179.031C525.671 177.271 525.958 175.776 526.525 174.547C527.098 173.318 527.911 172.383 528.963 171.742C530.02 171.102 531.275 170.781 532.729 170.781C534.182 170.781 535.437 171.104 536.494 171.75C537.551 172.391 538.367 173.326 538.939 174.555C539.512 175.784 539.796 177.276 539.791 179.031C539.791 180.797 539.505 182.307 538.932 183.562C538.359 184.818 537.544 185.779 536.486 186.445C535.434 187.107 534.182 187.437 532.729 187.437ZM532.729 183.906C533.479 183.906 534.093 183.516 534.572 182.734C535.057 181.948 535.296 180.714 535.291 179.031C535.291 177.932 535.182 177.034 534.963 176.336C534.744 175.638 534.442 175.122 534.057 174.789C533.671 174.451 533.229 174.281 532.729 174.281C531.979 174.281 531.367 174.661 530.893 175.422C530.419 176.182 530.176 177.385 530.166 179.031C530.161 180.151 530.268 181.073 530.486 181.797C530.705 182.516 531.007 183.047 531.393 183.391C531.783 183.734 532.229 183.906 532.729 183.906ZM542.33 187V183.875L548.299 178.937C548.695 178.609 549.033 178.302 549.314 178.016C549.601 177.724 549.82 177.424 549.971 177.117C550.127 176.81 550.205 176.469 550.205 176.094C550.205 175.682 550.117 175.331 549.939 175.039C549.768 174.747 549.528 174.523 549.221 174.367C548.913 174.206 548.559 174.125 548.158 174.125C547.757 174.125 547.403 174.206 547.096 174.367C546.794 174.529 546.559 174.766 546.393 175.078C546.226 175.391 546.143 175.771 546.143 176.219H542.018C542.018 175.094 542.27 174.125 542.775 173.312C543.281 172.5 543.994 171.875 544.916 171.437C545.838 171 546.919 170.781 548.158 170.781C549.439 170.781 550.549 170.987 551.486 171.398C552.429 171.805 553.156 172.378 553.666 173.117C554.182 173.857 554.439 174.724 554.439 175.719C554.439 176.333 554.312 176.945 554.057 177.555C553.801 178.159 553.343 178.828 552.682 179.562C552.02 180.297 551.08 181.172 549.861 182.188L548.361 183.437V183.531H554.611V187H542.33Z" fill="black"/>
<path d="M252.562 46V37.2727H256.33C256.977 37.2727 257.544 37.4006 258.03 37.6562C258.516 37.9119 258.893 38.2713 259.163 38.7344C259.433 39.1974 259.568 39.7386 259.568 40.358C259.568 40.983 259.429 41.5241 259.151 41.9815C258.875 42.4389 258.487 42.7912 257.987 43.0384C257.49 43.2855 256.909 43.4091 256.244 43.4091H253.994V41.5682H255.767C256.045 41.5682 256.283 41.5199 256.479 41.4233C256.678 41.3239 256.83 41.1832 256.935 41.0014C257.043 40.8196 257.097 40.6051 257.097 40.358C257.097 40.108 257.043 39.8949 256.935 39.7188C256.83 39.5398 256.678 39.4034 256.479 39.3097C256.283 39.2131 256.045 39.1648 255.767 39.1648H254.932V46H252.562ZM269.392 41.6364C269.392 42.608 269.203 43.4276 268.825 44.0952C268.447 44.7599 267.938 45.2642 267.295 45.608C266.653 45.9489 265.938 46.1193 265.148 46.1193C264.352 46.1193 263.634 45.9474 262.991 45.6037C262.352 45.2571 261.844 44.7514 261.466 44.0866C261.091 43.419 260.903 42.6023 260.903 41.6364C260.903 40.6648 261.091 39.8466 261.466 39.1818C261.844 38.5142 262.352 38.0099 262.991 37.669C263.634 37.3253 264.352 37.1534 265.148 37.1534C265.938 37.1534 266.653 37.3253 267.295 37.669C267.938 38.0099 268.447 38.5142 268.825 39.1818C269.203 39.8466 269.392 40.6648 269.392 41.6364ZM266.955 41.6364C266.955 41.1136 266.885 40.6733 266.746 40.3153C266.609 39.9545 266.406 39.6818 266.136 39.4972C265.869 39.3097 265.54 39.2159 265.148 39.2159C264.756 39.2159 264.425 39.3097 264.155 39.4972C263.888 39.6818 263.685 39.9545 263.545 40.3153C263.409 40.6733 263.341 41.1136 263.341 41.6364C263.341 42.1591 263.409 42.6009 263.545 42.9616C263.685 43.3196 263.888 43.5923 264.155 43.7798C264.425 43.9645 264.756 44.0568 265.148 44.0568C265.54 44.0568 265.869 43.9645 266.136 43.7798C266.406 43.5923 266.609 43.3196 266.746 42.9616C266.885 42.6009 266.955 42.1591 266.955 41.6364ZM271.022 46V44.6875L275.147 39.1818H271.039V37.2727H278.164V38.5852L274.039 44.0909H278.147V46H271.022ZM273.784 34.4943L274.619 35.4318L275.454 34.4943H277.397V34.5455L275.437 36.4886H273.801L271.841 34.5455V34.4943H273.784ZM282.19 37.2727V46H279.82V37.2727H282.19ZM286.08 46H283.523L286.403 37.2727H289.642L292.523 46H289.966L288.057 39.6761H287.989L286.08 46ZM285.602 42.5568H290.409V44.3295H285.602V42.5568ZM297.221 46H293.863V37.2727H297.187C298.085 37.2727 298.86 37.4474 299.514 37.7969C300.17 38.1435 300.676 38.6435 301.031 39.2969C301.389 39.9474 301.568 40.7273 301.568 41.6364C301.568 42.5455 301.39 43.3267 301.035 43.9801C300.68 44.6307 300.177 45.1307 299.527 45.4801C298.876 45.8267 298.108 46 297.221 46ZM296.233 43.9886H297.136C297.568 43.9886 297.936 43.919 298.24 43.7798C298.547 43.6406 298.779 43.4006 298.939 43.0597C299.1 42.7187 299.181 42.2443 299.181 41.6364C299.181 41.0284 299.099 40.554 298.934 40.2131C298.772 39.8722 298.534 39.6321 298.218 39.4929C297.906 39.3537 297.522 39.2841 297.068 39.2841H296.233V43.9886ZM304.88 46H302.324L305.204 37.2727H308.443L311.324 46H308.767L306.858 39.6761H306.789L304.88 46ZM304.403 42.5568H309.21V44.3295H304.403V42.5568ZM313.785 37.2727L315.575 43.4261H315.643L317.433 37.2727H320.109L317.228 46H313.989L311.109 37.2727H313.785ZM321.449 46V37.2727H323.819V40.8011H323.938L326.563 37.2727H329.324L326.375 41.1591L329.392 46H326.563L324.603 42.7273L323.819 43.75V46H321.449ZM332.794 46H330.238L333.118 37.2727H336.357L339.238 46H336.681L334.772 39.6761H334.703L332.794 46ZM332.317 42.5568H337.124V44.3295H332.317V42.5568Z" fill="black"/>
<path d="M252.562 46V37.2727H256.33C256.977 37.2727 257.544 37.4006 258.03 37.6562C258.516 37.9119 258.893 38.2713 259.163 38.7344C259.433 39.1974 259.568 39.7386 259.568 40.358C259.568 40.983 259.429 41.5241 259.151 41.9815C258.875 42.4389 258.487 42.7912 257.987 43.0384C257.49 43.2855 256.909 43.4091 256.244 43.4091H253.994V41.5682H255.767C256.045 41.5682 256.283 41.5199 256.479 41.4233C256.678 41.3239 256.83 41.1832 256.935 41.0014C257.043 40.8196 257.097 40.6051 257.097 40.358C257.097 40.108 257.043 39.8949 256.935 39.7188C256.83 39.5398 256.678 39.4034 256.479 39.3097C256.283 39.2131 256.045 39.1648 255.767 39.1648H254.932V46H252.562ZM269.392 41.6364C269.392 42.608 269.203 43.4276 268.825 44.0952C268.447 44.7599 267.938 45.2642 267.295 45.608C266.653 45.9489 265.938 46.1193 265.148 46.1193C264.352 46.1193 263.634 45.9474 262.991 45.6037C262.352 45.2571 261.844 44.7514 261.466 44.0866C261.091 43.419 260.903 42.6023 260.903 41.6364C260.903 40.6648 261.091 39.8466 261.466 39.1818C261.844 38.5142 262.352 38.0099 262.991 37.669C263.634 37.3253 264.352 37.1534 265.148 37.1534C265.938 37.1534 266.653 37.3253 267.295 37.669C267.938 38.0099 268.447 38.5142 268.825 39.1818C269.203 39.8466 269.392 40.6648 269.392 41.6364ZM266.955 41.6364C266.955 41.1136 266.885 40.6733 266.746 40.3153C266.609 39.9545 266.406 39.6818 266.136 39.4972C265.869 39.3097 265.54 39.2159 265.148 39.2159C264.756 39.2159 264.425 39.3097 264.155 39.4972C263.888 39.6818 263.685 39.9545 263.545 40.3153C263.409 40.6733 263.341 41.1136 263.341 41.6364C263.341 42.1591 263.409 42.6009 263.545 42.9616C263.685 43.3196 263.888 43.5923 264.155 43.7798C264.425 43.9645 264.756 44.0568 265.148 44.0568C265.54 44.0568 265.869 43.9645 266.136 43.7798C266.406 43.5923 266.609 43.3196 266.746 42.9616C266.885 42.6009 266.955 42.1591 266.955 41.6364ZM271.022 46V44.6875L275.147 39.1818H271.039V37.2727H278.164V38.5852L274.039 44.0909H278.147V46H271.022ZM273.784 34.4943L274.619 35.4318L275.454 34.4943H277.397V34.5455L275.437 36.4886H273.801L271.841 34.5455V34.4943H273.784ZM282.19 37.2727V46H279.82V37.2727H282.19ZM286.08 46H283.523L286.403 37.2727H289.642L292.523 46H289.966L288.057 39.6761H287.989L286.08 46ZM285.602 42.5568H290.409V44.3295H285.602V42.5568ZM297.221 46H293.863V37.2727H297.187C298.085 37.2727 298.86 37.4474 299.514 37.7969C300.17 38.1435 300.676 38.6435 301.031 39.2969C301.389 39.9474 301.568 40.7273 301.568 41.6364C301.568 42.5455 301.39 43.3267 301.035 43.9801C300.68 44.6307 300.177 45.1307 299.527 45.4801C298.876 45.8267 298.108 46 297.221 46ZM296.233 43.9886H297.136C297.568 43.9886 297.936 43.919 298.24 43.7798C298.547 43.6406 298.779 43.4006 298.939 43.0597C299.1 42.7187 299.181 42.2443 299.181 41.6364C299.181 41.0284 299.099 40.554 298.934 40.2131C298.772 39.8722 298.534 39.6321 298.218 39.4929C297.906 39.3537 297.522 39.2841 297.068 39.2841H296.233V43.9886ZM304.88 46H302.324L305.204 37.2727H308.443L311.324 46H308.767L306.858 39.6761H306.789L304.88 46ZM304.403 42.5568H309.21V44.3295H304.403V42.5568ZM313.785 37.2727L315.575 43.4261H315.643L317.433 37.2727H320.109L317.228 46H313.989L311.109 37.2727H313.785ZM321.449 46V37.2727H323.819V40.8011H323.938L326.563 37.2727H329.324L326.375 41.1591L329.392 46H326.563L324.603 42.7273L323.819 43.75V46H321.449ZM332.794 46H330.238L333.118 37.2727H336.357L339.238 46H336.681L334.772 39.6761H334.703L332.794 46ZM332.317 42.5568H337.124V44.3295H332.317V42.5568Z" fill="#0052BD"/>
<path d="M272.017 81.6364C272.017 82.608 271.828 83.4276 271.45 84.0952C271.072 84.7599 270.563 85.2642 269.92 85.608C269.278 85.9489 268.563 86.1193 267.773 86.1193C266.977 86.1193 266.259 85.9474 265.616 85.6037C264.977 85.2571 264.469 84.7514 264.091 84.0866C263.716 83.419 263.528 82.6023 263.528 81.6364C263.528 80.6648 263.716 79.8466 264.091 79.1818C264.469 78.5142 264.977 78.0099 265.616 77.669C266.259 77.3253 266.977 77.1534 267.773 77.1534C268.563 77.1534 269.278 77.3253 269.92 77.669C270.563 78.0099 271.072 78.5142 271.45 79.1818C271.828 79.8466 272.017 80.6648 272.017 81.6364ZM269.58 81.6364C269.58 81.1136 269.51 80.6733 269.371 80.3153C269.234 79.9545 269.031 79.6818 268.761 79.4972C268.494 79.3097 268.165 79.2159 267.773 79.2159C267.381 79.2159 267.05 79.3097 266.78 79.4972C266.513 79.6818 266.31 79.9545 266.17 80.3153C266.034 80.6733 265.966 81.1136 265.966 81.6364C265.966 82.1591 266.034 82.6009 266.17 82.9616C266.31 83.3196 266.513 83.5923 266.78 83.7798C267.05 83.9645 267.381 84.0568 267.773 84.0568C268.165 84.0568 268.494 83.9645 268.761 83.7798C269.031 83.5923 269.234 83.3196 269.371 82.9616C269.51 82.6009 269.58 82.1591 269.58 81.6364ZM276.971 86H273.613V77.2727H276.937C277.835 77.2727 278.61 77.4474 279.264 77.7969C279.92 78.1435 280.426 78.6435 280.781 79.2969C281.139 79.9474 281.318 80.7273 281.318 81.6364C281.318 82.5455 281.14 83.3267 280.785 83.9801C280.43 84.6307 279.927 85.1307 279.277 85.4801C278.626 85.8267 277.858 86 276.971 86ZM275.983 83.9886H276.886C277.318 83.9886 277.686 83.919 277.99 83.7798C278.297 83.6406 278.529 83.4006 278.689 83.0597C278.85 82.7187 278.931 82.2443 278.931 81.6364C278.931 81.0284 278.849 80.554 278.684 80.2131C278.522 79.8722 278.284 79.6321 277.968 79.4929C277.656 79.3537 277.272 79.2841 276.818 79.2841H275.983V83.9886ZM282.914 86V77.2727H286.681C287.329 77.2727 287.896 77.4006 288.381 77.6562C288.867 77.9119 289.245 78.2713 289.515 78.7344C289.785 79.1974 289.92 79.7386 289.92 80.358C289.92 80.983 289.781 81.5241 289.502 81.9815C289.227 82.4389 288.839 82.7912 288.339 83.0384C287.842 83.2855 287.261 83.4091 286.596 83.4091H284.346V81.5682H286.119C286.397 81.5682 286.634 81.5199 286.83 81.4233C287.029 81.3239 287.181 81.1832 287.286 81.0014C287.394 80.8196 287.448 80.6051 287.448 80.358C287.448 80.108 287.394 79.8949 287.286 79.7188C287.181 79.5398 287.029 79.4034 286.83 79.3097C286.634 79.2131 286.397 79.1648 286.119 79.1648H285.283V86H282.914ZM299.744 81.6364C299.744 82.608 299.555 83.4276 299.177 84.0952C298.799 84.7599 298.289 85.2642 297.647 85.608C297.005 85.9489 296.289 86.1193 295.499 86.1193C294.704 86.1193 293.985 85.9474 293.343 85.6037C292.704 85.2571 292.195 84.7514 291.817 84.0866C291.442 83.419 291.255 82.6023 291.255 81.6364C291.255 80.6648 291.442 79.8466 291.817 79.1818C292.195 78.5142 292.704 78.0099 293.343 77.669C293.985 77.3253 294.704 77.1534 295.499 77.1534C296.289 77.1534 297.005 77.3253 297.647 77.669C298.289 78.0099 298.799 78.5142 299.177 79.1818C299.555 79.8466 299.744 80.6648 299.744 81.6364ZM297.306 81.6364C297.306 81.1136 297.237 80.6733 297.097 80.3153C296.961 79.9545 296.758 79.6818 296.488 79.4972C296.221 79.3097 295.891 79.2159 295.499 79.2159C295.107 79.2159 294.776 79.3097 294.506 79.4972C294.239 79.6818 294.036 79.9545 293.897 80.3153C293.761 80.6733 293.692 81.1136 293.692 81.6364C293.692 82.1591 293.761 82.6009 293.897 82.9616C294.036 83.3196 294.239 83.5923 294.506 83.7798C294.776 83.9645 295.107 84.0568 295.499 84.0568C295.891 84.0568 296.221 83.9645 296.488 83.7798C296.758 83.5923 296.961 83.3196 297.097 82.9616C297.237 82.6009 297.306 82.1591 297.306 81.6364ZM303.175 77.2727L304.965 83.4261H305.033L306.823 77.2727H309.499L306.619 86H303.38L300.499 77.2727H303.175ZM310.84 86V77.2727H317.13V79.1818H313.209V80.6818H316.806V82.5909H313.209V84.0909H317.113V86H310.84ZM322.163 86H318.805V77.2727H322.129C323.026 77.2727 323.802 77.4474 324.455 77.7969C325.112 78.1435 325.617 78.6435 325.972 79.2969C326.33 79.9474 326.509 80.7273 326.509 81.6364C326.509 82.5455 326.332 83.3267 325.977 83.9801C325.621 84.6307 325.119 85.1307 324.468 85.4801C323.817 85.8267 323.049 86 322.163 86ZM321.174 83.9886H322.077C322.509 83.9886 322.877 83.919 323.181 83.7798C323.488 83.6406 323.721 83.4006 323.88 83.0597C324.042 82.7187 324.123 82.2443 324.123 81.6364C324.123 81.0284 324.04 80.554 323.876 80.2131C323.714 79.8722 323.475 79.6321 323.16 79.4929C322.847 79.3537 322.464 79.2841 322.009 79.2841H321.174V83.9886ZM320.884 74.4943L321.719 75.4318L322.555 74.4943H324.498V74.5455L322.538 76.4886H320.901L318.941 74.5455V74.4943H320.884Z" fill="#FF0000" fill-opacity="0.8"/>
<path d="M417.414 54.4152C418.195 53.6342 418.195 52.3678 417.414 51.5868L404.686 38.8589C403.905 38.0778 402.639 38.0778 401.858 38.8588C401.077 39.6399 401.077 40.9062 401.858 41.6873L413.172 53.001L401.858 64.3147C401.077 65.0957 401.077 66.3621 401.858 67.1431C402.639 67.9242 403.905 67.9242 404.686 67.1431L417.414 54.4152ZM160.5 53.0008L160.5 55.0008L416 55.001L416 53.001L416 51.001L160.5 51.0008L160.5 53.0008Z" fill="#0052BD"/>
<path d="M202.586 92.5859C201.805 93.3669 201.805 94.6333 202.586 95.4143L215.314 108.142C216.095 108.923 217.361 108.923 218.142 108.142C218.923 107.361 218.923 106.095 218.142 105.314L206.829 94.0001L218.142 82.6864C218.923 81.9053 218.923 80.639 218.142 79.858C217.361 79.0769 216.095 79.0769 215.314 79.858L202.586 92.5859ZM389.5 94.0001L389.5 92.0001L204 92.0001L204 94.0001L204 96.0001L389.5 96.0001L389.5 94.0001Z" fill="#FF0000" fill-opacity="0.8"/>
<path d="M642.562 46V37.2727H646.33C646.977 37.2727 647.544 37.4006 648.03 37.6562C648.516 37.9119 648.893 38.2713 649.163 38.7344C649.433 39.1974 649.568 39.7386 649.568 40.358C649.568 40.983 649.429 41.5241 649.151 41.9815C648.875 42.4389 648.487 42.7912 647.987 43.0384C647.49 43.2855 646.909 43.4091 646.244 43.4091H643.994V41.5682H645.767C646.045 41.5682 646.283 41.5199 646.479 41.4233C646.678 41.3239 646.83 41.1832 646.935 41.0014C647.043 40.8196 647.097 40.6051 647.097 40.358C647.097 40.108 647.043 39.8949 646.935 39.7188C646.83 39.5398 646.678 39.4034 646.479 39.3097C646.283 39.2131 646.045 39.1648 645.767 39.1648H644.932V46H642.562ZM659.392 41.6364C659.392 42.608 659.203 43.4276 658.825 44.0952C658.447 44.7599 657.938 45.2642 657.295 45.608C656.653 45.9489 655.938 46.1193 655.148 46.1193C654.352 46.1193 653.634 45.9474 652.991 45.6037C652.352 45.2571 651.844 44.7514 651.466 44.0866C651.091 43.419 650.903 42.6023 650.903 41.6364C650.903 40.6648 651.091 39.8466 651.466 39.1818C651.844 38.5142 652.352 38.0099 652.991 37.669C653.634 37.3253 654.352 37.1534 655.148 37.1534C655.938 37.1534 656.653 37.3253 657.295 37.669C657.938 38.0099 658.447 38.5142 658.825 39.1818C659.203 39.8466 659.392 40.6648 659.392 41.6364ZM656.955 41.6364C656.955 41.1136 656.885 40.6733 656.746 40.3153C656.609 39.9545 656.406 39.6818 656.136 39.4972C655.869 39.3097 655.54 39.2159 655.148 39.2159C654.756 39.2159 654.425 39.3097 654.155 39.4972C653.888 39.6818 653.685 39.9545 653.545 40.3153C653.409 40.6733 653.341 41.1136 653.341 41.6364C653.341 42.1591 653.409 42.6009 653.545 42.9616C653.685 43.3196 653.888 43.5923 654.155 43.7798C654.425 43.9645 654.756 44.0568 655.148 44.0568C655.54 44.0568 655.869 43.9645 656.136 43.7798C656.406 43.5923 656.609 43.3196 656.746 42.9616C656.885 42.6009 656.955 42.1591 656.955 41.6364ZM661.022 46V44.6875L665.147 39.1818H661.039V37.2727H668.164V38.5852L664.039 44.0909H668.147V46H661.022ZM663.784 34.4943L664.619 35.4318L665.454 34.4943H667.397V34.5455L665.437 36.4886H663.801L661.841 34.5455V34.4943H663.784ZM672.19 37.2727V46H669.82V37.2727H672.19ZM676.08 46H673.523L676.403 37.2727H679.642L682.523 46H679.966L678.057 39.6761H677.989L676.08 46ZM675.602 42.5568H680.409V44.3295H675.602V42.5568ZM687.221 46H683.863V37.2727H687.187C688.085 37.2727 688.86 37.4474 689.514 37.7969C690.17 38.1435 690.676 38.6435 691.031 39.2969C691.389 39.9474 691.568 40.7273 691.568 41.6364C691.568 42.5455 691.39 43.3267 691.035 43.9801C690.68 44.6307 690.177 45.1307 689.527 45.4801C688.876 45.8267 688.108 46 687.221 46ZM686.233 43.9886H687.136C687.568 43.9886 687.936 43.919 688.24 43.7798C688.547 43.6406 688.779 43.4006 688.939 43.0597C689.1 42.7187 689.181 42.2443 689.181 41.6364C689.181 41.0284 689.099 40.554 688.934 40.2131C688.772 39.8722 688.534 39.6321 688.218 39.4929C687.906 39.3537 687.522 39.2841 687.068 39.2841H686.233V43.9886ZM694.88 46H692.324L695.204 37.2727H698.443L701.324 46H698.767L696.858 39.6761H696.789L694.88 46ZM694.403 42.5568H699.21V44.3295H694.403V42.5568ZM703.785 37.2727L705.575 43.4261H705.643L707.433 37.2727H710.109L707.228 46H703.989L701.109 37.2727H703.785ZM711.449 46V37.2727H713.819V40.8011H713.938L716.563 37.2727H719.324L716.375 41.1591L719.392 46H716.563L714.603 42.7273L713.819 43.75V46H711.449ZM722.794 46H720.238L723.118 37.2727H726.357L729.238 46H726.681L724.772 39.6761H724.703L722.794 46ZM722.317 42.5568H727.124V44.3295H722.317V42.5568Z" fill="#0052BD"/>
<path d="M662.017 81.6364C662.017 82.608 661.828 83.4276 661.45 84.0952C661.072 84.7599 660.563 85.2642 659.92 85.608C659.278 85.9489 658.563 86.1193 657.773 86.1193C656.977 86.1193 656.259 85.9474 655.616 85.6037C654.977 85.2571 654.469 84.7514 654.091 84.0866C653.716 83.419 653.528 82.6023 653.528 81.6364C653.528 80.6648 653.716 79.8466 654.091 79.1818C654.469 78.5142 654.977 78.0099 655.616 77.669C656.259 77.3253 656.977 77.1534 657.773 77.1534C658.563 77.1534 659.278 77.3253 659.92 77.669C660.563 78.0099 661.072 78.5142 661.45 79.1818C661.828 79.8466 662.017 80.6648 662.017 81.6364ZM659.58 81.6364C659.58 81.1136 659.51 80.6733 659.371 80.3153C659.234 79.9545 659.031 79.6818 658.761 79.4972C658.494 79.3097 658.165 79.2159 657.773 79.2159C657.381 79.2159 657.05 79.3097 656.78 79.4972C656.513 79.6818 656.31 79.9545 656.17 80.3153C656.034 80.6733 655.966 81.1136 655.966 81.6364C655.966 82.1591 656.034 82.6009 656.17 82.9616C656.31 83.3196 656.513 83.5923 656.78 83.7798C657.05 83.9645 657.381 84.0568 657.773 84.0568C658.165 84.0568 658.494 83.9645 658.761 83.7798C659.031 83.5923 659.234 83.3196 659.371 82.9616C659.51 82.6009 659.58 82.1591 659.58 81.6364ZM666.971 86H663.613V77.2727H666.937C667.835 77.2727 668.61 77.4474 669.264 77.7969C669.92 78.1435 670.426 78.6435 670.781 79.2969C671.139 79.9474 671.318 80.7273 671.318 81.6364C671.318 82.5455 671.14 83.3267 670.785 83.9801C670.43 84.6307 669.927 85.1307 669.277 85.4801C668.626 85.8267 667.858 86 666.971 86ZM665.983 83.9886H666.886C667.318 83.9886 667.686 83.919 667.99 83.7798C668.297 83.6406 668.529 83.4006 668.689 83.0597C668.85 82.7187 668.931 82.2443 668.931 81.6364C668.931 81.0284 668.849 80.554 668.684 80.2131C668.522 79.8722 668.284 79.6321 667.968 79.4929C667.656 79.3537 667.272 79.2841 666.818 79.2841H665.983V83.9886ZM672.914 86V77.2727H676.681C677.329 77.2727 677.896 77.4006 678.381 77.6562C678.867 77.9119 679.245 78.2713 679.515 78.7344C679.785 79.1974 679.92 79.7386 679.92 80.358C679.92 80.983 679.781 81.5241 679.502 81.9815C679.227 82.4389 678.839 82.7912 678.339 83.0384C677.842 83.2855 677.261 83.4091 676.596 83.4091H674.346V81.5682H676.119C676.397 81.5682 676.634 81.5199 676.83 81.4233C677.029 81.3239 677.181 81.1832 677.286 81.0014C677.394 80.8196 677.448 80.6051 677.448 80.358C677.448 80.108 677.394 79.8949 677.286 79.7188C677.181 79.5398 677.029 79.4034 676.83 79.3097C676.634 79.2131 676.397 79.1648 676.119 79.1648H675.283V86H672.914ZM689.744 81.6364C689.744 82.608 689.555 83.4276 689.177 84.0952C688.799 84.7599 688.289 85.2642 687.647 85.608C687.005 85.9489 686.289 86.1193 685.499 86.1193C684.704 86.1193 683.985 85.9474 683.343 85.6037C682.704 85.2571 682.195 84.7514 681.817 84.0866C681.442 83.419 681.255 82.6023 681.255 81.6364C681.255 80.6648 681.442 79.8466 681.817 79.1818C682.195 78.5142 682.704 78.0099 683.343 77.669C683.985 77.3253 684.704 77.1534 685.499 77.1534C686.289 77.1534 687.005 77.3253 687.647 77.669C688.289 78.0099 688.799 78.5142 689.177 79.1818C689.555 79.8466 689.744 80.6648 689.744 81.6364ZM687.306 81.6364C687.306 81.1136 687.237 80.6733 687.097 80.3153C686.961 79.9545 686.758 79.6818 686.488 79.4972C686.221 79.3097 685.891 79.2159 685.499 79.2159C685.107 79.2159 684.776 79.3097 684.506 79.4972C684.239 79.6818 684.036 79.9545 683.897 80.3153C683.761 80.6733 683.692 81.1136 683.692 81.6364C683.692 82.1591 683.761 82.6009 683.897 82.9616C684.036 83.3196 684.239 83.5923 684.506 83.7798C684.776 83.9645 685.107 84.0568 685.499 84.0568C685.891 84.0568 686.221 83.9645 686.488 83.7798C686.758 83.5923 686.961 83.3196 687.097 82.9616C687.237 82.6009 687.306 82.1591 687.306 81.6364ZM693.175 77.2727L694.965 83.4261H695.033L696.823 77.2727H699.499L696.619 86H693.38L690.499 77.2727H693.175ZM700.84 86V77.2727H707.13V79.1818H703.209V80.6818H706.806V82.5909H703.209V84.0909H707.113V86H700.84ZM712.163 86H708.805V77.2727H712.129C713.026 77.2727 713.802 77.4474 714.455 77.7969C715.112 78.1435 715.617 78.6435 715.972 79.2969C716.33 79.9474 716.509 80.7273 716.509 81.6364C716.509 82.5455 716.332 83.3267 715.977 83.9801C715.621 84.6307 715.119 85.1307 714.468 85.4801C713.817 85.8267 713.049 86 712.163 86ZM711.174 83.9886H712.077C712.509 83.9886 712.877 83.919 713.181 83.7798C713.488 83.6406 713.721 83.4006 713.88 83.0597C714.042 82.7187 714.123 82.2443 714.123 81.6364C714.123 81.0284 714.04 80.554 713.876 80.2131C713.714 79.8722 713.475 79.6321 713.16 79.4929C712.847 79.3537 712.464 79.2841 712.009 79.2841H711.174V83.9886ZM710.884 74.4943L711.719 75.4318L712.555 74.4943H714.498V74.5455L712.538 76.4886H710.901L708.941 74.5455V74.4943H710.884Z" fill="#FF0000" fill-opacity="0.8"/>
<path d="M761.414 54.4142C762.195 53.6332 762.195 52.3669 761.414 51.5858L748.686 38.8579C747.905 38.0768 746.639 38.0768 745.858 38.8579C745.077 39.6389 745.077 40.9053 745.858 41.6863L757.172 53L745.858 64.3137C745.077 65.0948 745.077 66.3611 745.858 67.1422C746.639 67.9232 747.905 67.9232 748.686 67.1422L761.414 54.4142ZM549.5 53L549.5 55L760 55L760 53L760 51L549.5 51L549.5 53Z" fill="#0052BD"/>
<path d="M592.586 92.5858C591.805 93.3668 591.805 94.6332 592.586 95.4142L605.314 108.142C606.095 108.923 607.361 108.923 608.142 108.142C608.923 107.361 608.923 106.095 608.142 105.314L596.828 94L608.142 82.6863C608.923 81.9052 608.923 80.6389 608.142 79.8579C607.361 79.0768 606.095 79.0768 605.314 79.8579L592.586 92.5858ZM782.5 94V92L594 92V94V96L782.5 96V94Z" fill="#FF0000" fill-opacity="0.8"/>
<path d="M790.5 94C801.822 94 811 84.8218 811 73.5C811 62.1782 801.822 53 790.5 53H758" stroke="black" stroke-width="4" stroke-dasharray="5 3"/>
<rect x="58" y="251.935" width="87.5084" height="21.0511" rx="2.04154" fill="white"/>
<path d="M69.2342 266.487L67.2209 264.42L69.2342 262.46" stroke="#001018" stroke-width="0.805311" stroke-linecap="round" stroke-linejoin="round"/>
<path d="M74.8715 266.487L76.8847 264.42L74.8715 262.46" stroke="#001018" stroke-width="0.805311" stroke-linecap="round" stroke-linejoin="round"/>
<path d="M73.6635 257.627H66.4157" stroke="#001018" stroke-width="0.805311" stroke-linejoin="round"/>
<path d="M73.6635 259.238H66.4157" stroke="#001018" stroke-width="0.805311" stroke-linejoin="round"/>
<path d="M64.8052 256.018H75.2742L77.2875 258.031L79.3008 260.044V268.903H64.8052V256.018Z" stroke="black" stroke-width="0.805311" stroke-linejoin="round"/>
<path d="M74.8715 256.018L77.0861 258.011L79.3007 260.447H75.2741C75.0517 260.447 74.8715 260.267 74.8715 260.044V256.018Z" fill="#001018"/>
<path d="M70.845 266.486L73.2609 261.654" stroke="#001018" stroke-width="0.805311" stroke-linecap="round" stroke-linejoin="round"/>
<path d="M83.405 267.96V257.072H86.361V261.474H86.5099L89.7848 257.072H93.2299L89.5509 261.92L93.315 267.96H89.7848L87.3392 263.877L86.361 265.153V267.96H83.405ZM94.4474 267.96V257.072H97.4034V265.578H101.805V267.96H94.4474ZM106.297 257.072V267.96H103.341V257.072H106.297ZM108.038 267.96V257.072H115.885V259.454H110.994V261.325H115.481V263.707H110.994V265.578H115.864V267.96H108.038ZM127.112 257.072V267.96H124.645L120.711 262.239H120.647V267.96H117.691V257.072H120.201L124.071 262.771H124.156V257.072H127.112ZM128.553 259.454V257.072H138.016V259.454H134.741V267.96H131.828V259.454H128.553Z" fill="black"/>
<rect x="490.375" y="252.196" width="91.7644" height="20.8848" rx="2.01673" fill="white"/>
<path d="M512.069 258.609C512.25 258.623 512.423 258.715 512.571 258.829C512.745 258.963 512.913 259.148 513.058 259.35C513.291 259.673 513.486 260.074 513.552 260.431C513.962 260.38 514.485 260.443 514.931 260.577C515.202 260.658 515.46 260.769 515.659 260.907C515.852 261.042 516.026 261.227 516.053 261.467C516.066 261.592 516.034 261.717 515.982 261.829C515.93 261.943 515.852 262.058 515.76 262.168C515.575 262.389 515.315 262.613 515.021 262.813C514.472 263.188 513.762 263.502 513.144 263.537L512.317 264.764C512.31 264.775 512.299 264.784 512.29 264.793C512.153 264.991 511.992 265.193 511.809 265.395C511.292 265.964 510.589 266.558 509.764 267.098C508.119 268.175 505.966 269.048 503.818 269.048C500.734 269.048 498.973 267.868 498.035 266.357C497.106 264.861 497.003 263.074 497.155 261.877L497.178 261.809C497.211 261.746 497.278 261.704 497.352 261.704H510.834C510.858 261.704 510.901 261.702 510.939 261.694C510.953 261.692 510.963 261.687 510.972 261.685C510.842 261.166 510.865 260.454 511.011 259.859C511.087 259.548 511.2 259.254 511.352 259.029C511.503 258.808 511.715 258.624 511.992 258.608L512.069 258.609Z" fill="#001018"/>
<rect x="497.494" y="256.229" width="11.4965" height="5.94647" stroke="black" stroke-width="0.792863" stroke-linejoin="round"/>
<path d="M499.476 257.419V260.987" stroke="#001018" stroke-width="0.792863" stroke-linejoin="round"/>
<path d="M501.855 257.419V260.987" stroke="#001018" stroke-width="0.792863" stroke-linejoin="round"/>
<path d="M504.234 257.419V260.987" stroke="#001018" stroke-width="0.792863" stroke-linejoin="round"/>
<path d="M506.612 257.419V260.987" stroke="#001018" stroke-width="0.792863" stroke-linejoin="round"/>
<path d="M530.152 261.416H527.19C527.169 261.171 527.113 260.949 527.022 260.749C526.934 260.55 526.812 260.378 526.654 260.235C526.5 260.088 526.313 259.975 526.092 259.898C525.872 259.818 525.621 259.778 525.341 259.778C524.851 259.778 524.436 259.897 524.096 260.135C523.76 260.373 523.505 260.714 523.33 261.159C523.158 261.604 523.072 262.138 523.072 262.761C523.072 263.419 523.16 263.97 523.335 264.415C523.513 264.856 523.771 265.189 524.107 265.413C524.443 265.634 524.847 265.744 525.32 265.744C525.59 265.744 525.831 265.711 526.045 265.644C526.258 265.574 526.444 265.474 526.602 265.345C526.759 265.215 526.887 265.059 526.985 264.877C527.087 264.692 527.155 264.483 527.19 264.252L530.152 264.273C530.117 264.728 529.989 265.192 529.768 265.665C529.548 266.134 529.235 266.568 528.828 266.968C528.426 267.363 527.927 267.682 527.332 267.923C526.736 268.165 526.045 268.286 525.257 268.286C524.27 268.286 523.384 268.074 522.6 267.65C521.819 267.227 521.201 266.603 520.746 265.781C520.294 264.958 520.068 263.951 520.068 262.761C520.068 261.563 520.299 260.555 520.761 259.736C521.224 258.913 521.847 258.291 522.631 257.871C523.415 257.448 524.291 257.236 525.257 257.236C525.936 257.236 526.561 257.329 527.132 257.514C527.703 257.7 528.203 257.971 528.634 258.328C529.065 258.682 529.411 259.118 529.674 259.636C529.937 260.154 530.096 260.748 530.152 261.416ZM534.275 268.139H531.123L534.674 257.383H538.665L542.215 268.139H539.064L536.711 260.345H536.627L534.275 268.139ZM533.686 263.895H539.611V266.08H533.686V263.895ZM553.124 261.416H550.162C550.141 261.171 550.085 260.949 549.993 260.749C549.906 260.55 549.783 260.378 549.626 260.235C549.472 260.088 549.284 259.975 549.064 259.898C548.843 259.818 548.593 259.778 548.313 259.778C547.823 259.778 547.408 259.897 547.068 260.135C546.732 260.373 546.476 260.714 546.301 261.159C546.13 261.604 546.044 262.138 546.044 262.761C546.044 263.419 546.132 263.97 546.307 264.415C546.485 264.856 546.743 265.189 547.079 265.413C547.415 265.634 547.819 265.744 548.292 265.744C548.561 265.744 548.803 265.711 549.017 265.644C549.23 265.574 549.416 265.474 549.573 265.345C549.731 265.215 549.859 265.059 549.957 264.877C550.058 264.692 550.127 264.483 550.162 264.252L553.124 264.273C553.089 264.728 552.961 265.192 552.74 265.665C552.52 266.134 552.206 266.568 551.8 266.968C551.397 267.363 550.899 267.682 550.303 267.923C549.708 268.165 549.017 268.286 548.229 268.286C547.242 268.286 546.356 268.074 545.571 267.65C544.791 267.227 544.173 266.603 543.717 265.781C543.266 264.958 543.04 263.951 543.04 262.761C543.04 261.563 543.271 260.555 543.733 259.736C544.195 258.913 544.819 258.291 545.603 257.871C546.387 257.448 547.263 257.236 548.229 257.236C548.908 257.236 549.533 257.329 550.104 257.514C550.674 257.7 551.175 257.971 551.606 258.328C552.036 258.682 552.383 259.118 552.646 259.636C552.908 260.154 553.068 260.748 553.124 261.416ZM554.785 268.139V257.383H557.705V261.584H561.57V257.383H564.49V268.139H561.57V263.937H557.705V268.139H554.785ZM566.213 268.139V257.383H573.964V259.736H569.133V261.584H573.565V263.937H569.133V265.786H573.943V268.139H566.213Z" fill="black"/>
<rect x="783" y="226" width="196" height="54" fill="#EEEEEE"/>
<rect x="781" y="2" width="200" height="280" rx="2" stroke="black" stroke-opacity="0.1" stroke-width="4"/>
<g clip-path="url(#clip0_1_7335)">
<path d="M870.583 58.9994C863.4 58.9994 856.512 61.8528 851.432 66.9319C846.353 72.011 843.5 78.8997 843.5 86.0827C843.5 93.2656 846.353 100.154 851.432 105.233C856.512 110.313 863.4 113.166 870.583 113.166H899.75C902.38 113.163 904.98 112.608 907.381 111.535C909.782 110.462 911.931 108.896 913.687 106.939C915.443 104.981 916.768 102.676 917.576 100.173C918.384 97.6706 918.656 95.0258 918.374 92.411C918.093 89.7962 917.265 87.2697 915.944 84.9958C914.622 82.7219 912.837 80.7514 910.705 79.2123C908.572 77.6732 906.14 76.5999 903.566 76.0622C900.991 75.5244 898.333 75.5343 895.762 76.091C893.76 71.0483 890.289 66.7231 885.799 63.6757C881.31 60.6284 876.009 58.9992 870.583 58.9994ZM899.75 121.499H870.583C864.418 121.498 858.359 119.887 853.007 116.825C847.655 113.764 843.195 109.359 840.068 104.045C836.941 98.7309 835.255 92.6927 835.178 86.5275C835.1 80.3623 836.634 74.2837 839.626 68.8929C842.619 63.5022 846.967 58.9861 852.24 55.7913C857.514 52.5965 863.53 50.8337 869.694 50.6774C875.857 50.5211 881.955 51.9765 887.384 54.8999C892.812 57.8232 897.384 62.1131 900.646 67.3452C907.761 67.5605 914.506 70.5686 919.42 75.7186C924.335 80.8686 927.024 87.7464 926.906 94.8641C926.788 101.982 923.873 108.767 918.791 113.752C913.709 118.736 906.868 121.519 899.75 121.499Z" fill="#001018"/>
</g>
<path d="M818.213 171L821.494 182.281H821.619L824.9 171H829.807L824.525 187H818.588L813.307 171H818.213ZM836.191 171V187H831.848V171H836.191ZM838.75 187V171H845.656C846.844 171 847.883 171.216 848.773 171.648C849.664 172.081 850.357 172.703 850.852 173.516C851.346 174.328 851.594 175.302 851.594 176.437C851.594 177.583 851.339 178.549 850.828 179.336C850.323 180.122 849.612 180.716 848.695 181.117C847.784 181.518 846.719 181.719 845.5 181.719H841.375V178.344H844.625C845.135 178.344 845.57 178.281 845.93 178.156C846.294 178.026 846.573 177.82 846.766 177.539C846.964 177.258 847.063 176.891 847.063 176.437C847.063 175.979 846.964 175.607 846.766 175.32C846.573 175.029 846.294 174.815 845.93 174.68C845.57 174.539 845.135 174.469 844.625 174.469H843.094V187H838.75ZM848.125 179.656L852.125 187H847.406L843.5 179.656H848.125ZM853.508 174.5V171H867.414V174.5H862.602V187H858.32V174.5H853.508ZM879.018 171H883.361V181.25C883.361 182.469 883.07 183.523 882.486 184.414C881.908 185.299 881.101 185.984 880.064 186.469C879.028 186.948 877.825 187.188 876.455 187.188C875.075 187.188 873.867 186.948 872.83 186.469C871.794 185.984 870.986 185.299 870.408 184.414C869.835 183.523 869.549 182.469 869.549 181.25V171H873.893V180.875C873.893 181.37 874.002 181.812 874.221 182.203C874.439 182.589 874.742 182.891 875.127 183.109C875.518 183.328 875.96 183.437 876.455 183.437C876.955 183.437 877.398 183.328 877.783 183.109C878.169 182.891 878.471 182.589 878.689 182.203C878.908 181.812 879.018 181.37 879.018 180.875V171ZM890.082 187H885.395L890.676 171H896.613L901.895 187H897.207L893.707 175.406H893.582L890.082 187ZM889.207 180.688H898.02V183.937H889.207V180.688ZM892.207 169.5L893.707 166H897.395L895.051 169.5H892.207ZM903.936 187V171H908.279V183.5H914.748V187H903.936ZM930.848 171V187H927.223L921.441 178.594H921.348V187H917.004V171H920.691L926.379 179.375H926.504V171H930.848ZM932.746 171H937.59L940.715 177.5H940.84L943.965 171H948.809L942.934 181.969V187H938.621V181.969L932.746 171ZM852.209 203C852.167 202.479 851.972 202.073 851.623 201.781C851.279 201.49 850.756 201.344 850.053 201.344C849.605 201.344 849.238 201.398 848.951 201.508C848.67 201.612 848.462 201.755 848.326 201.937C848.191 202.12 848.12 202.328 848.115 202.562C848.105 202.755 848.139 202.93 848.217 203.086C848.3 203.237 848.43 203.375 848.607 203.5C848.785 203.62 849.011 203.729 849.287 203.828C849.563 203.927 849.891 204.016 850.271 204.094L851.584 204.375C852.469 204.562 853.227 204.81 853.857 205.117C854.488 205.424 855.003 205.786 855.404 206.203C855.805 206.615 856.1 207.078 856.287 207.594C856.48 208.109 856.579 208.672 856.584 209.281C856.579 210.333 856.316 211.224 855.795 211.953C855.274 212.682 854.529 213.237 853.561 213.617C852.597 213.997 851.438 214.188 850.084 214.188C848.693 214.188 847.48 213.982 846.443 213.57C845.412 213.159 844.61 212.526 844.037 211.672C843.469 210.812 843.183 209.714 843.178 208.375H847.303C847.329 208.865 847.451 209.276 847.67 209.609C847.889 209.943 848.196 210.195 848.592 210.367C848.993 210.539 849.469 210.625 850.021 210.625C850.485 210.625 850.873 210.568 851.186 210.453C851.498 210.339 851.735 210.18 851.896 209.977C852.058 209.773 852.141 209.542 852.146 209.281C852.141 209.036 852.061 208.823 851.904 208.641C851.753 208.453 851.503 208.286 851.154 208.141C850.805 207.99 850.334 207.849 849.74 207.719L848.146 207.375C846.73 207.068 845.613 206.555 844.795 205.836C843.982 205.112 843.579 204.125 843.584 202.875C843.579 201.859 843.85 200.971 844.396 200.211C844.949 199.445 845.712 198.849 846.686 198.422C847.665 197.995 848.787 197.781 850.053 197.781C851.344 197.781 852.462 197.997 853.404 198.43C854.347 198.862 855.074 199.471 855.584 200.258C856.1 201.039 856.36 201.953 856.365 203H852.209ZM858.299 201.5V198H872.205V201.5H867.393V214H863.111V201.5H858.299ZM874.34 214V198H881.246C882.434 198 883.473 198.216 884.363 198.648C885.254 199.081 885.947 199.703 886.441 200.516C886.936 201.328 887.184 202.302 887.184 203.437C887.184 204.583 886.928 205.549 886.418 206.336C885.913 207.122 885.202 207.716 884.285 208.117C883.374 208.518 882.309 208.719 881.09 208.719H876.965V205.344H880.215C880.725 205.344 881.16 205.281 881.52 205.156C881.884 205.026 882.163 204.82 882.355 204.539C882.553 204.258 882.652 203.891 882.652 203.437C882.652 202.979 882.553 202.607 882.355 202.32C882.163 202.029 881.884 201.815 881.52 201.68C881.16 201.539 880.725 201.469 880.215 201.469H878.684V214H874.34ZM883.715 206.656L887.715 214H882.996L879.09 206.656H883.715ZM905.035 206C905.035 207.781 904.689 209.284 903.996 210.508C903.303 211.727 902.368 212.651 901.191 213.281C900.014 213.906 898.702 214.219 897.254 214.219C895.796 214.219 894.478 213.904 893.301 213.273C892.129 212.638 891.197 211.711 890.504 210.492C889.816 209.268 889.473 207.771 889.473 206C889.473 204.219 889.816 202.719 890.504 201.5C891.197 200.276 892.129 199.352 893.301 198.727C894.478 198.096 895.796 197.781 897.254 197.781C898.702 197.781 900.014 198.096 901.191 198.727C902.368 199.352 903.303 200.276 903.996 201.5C904.689 202.719 905.035 204.219 905.035 206ZM900.566 206C900.566 205.042 900.439 204.234 900.184 203.578C899.934 202.917 899.561 202.417 899.066 202.078C898.577 201.734 897.973 201.562 897.254 201.562C896.535 201.562 895.928 201.734 895.434 202.078C894.944 202.417 894.572 202.917 894.316 203.578C894.066 204.234 893.941 205.042 893.941 206C893.941 206.958 894.066 207.768 894.316 208.43C894.572 209.086 894.944 209.586 895.434 209.93C895.928 210.268 896.535 210.437 897.254 210.437C897.973 210.437 898.577 210.268 899.066 209.93C899.561 209.586 899.934 209.086 900.184 208.43C900.439 207.768 900.566 206.958 900.566 206ZM914.139 198H918.42V208.969C918.415 210.01 918.152 210.927 917.631 211.719C917.115 212.505 916.402 213.12 915.49 213.563C914.584 214 913.54 214.219 912.357 214.219C911.331 214.219 910.394 214.042 909.545 213.687C908.696 213.328 908.019 212.766 907.514 212C907.008 211.229 906.758 210.229 906.764 209H911.107C911.123 209.401 911.191 209.74 911.311 210.016C911.436 210.292 911.607 210.5 911.826 210.641C912.05 210.776 912.321 210.844 912.639 210.844C912.962 210.844 913.232 210.773 913.451 210.633C913.675 210.492 913.844 210.284 913.959 210.008C914.074 209.727 914.133 209.38 914.139 208.969V198Z" fill="black"/>
<rect x="837" y="252.196" width="87.7644" height="20.8848" rx="2.01673" fill="white"/>
<rect x="837.336" y="252.532" width="87.0922" height="20.2126" rx="1.6806" stroke="black" stroke-opacity="0.1" stroke-width="0.672242"/>
<path d="M858.694 258.609C858.875 258.623 859.048 258.715 859.196 258.829C859.37 258.963 859.538 259.148 859.683 259.35C859.916 259.673 860.111 260.074 860.177 260.431C860.587 260.38 861.11 260.443 861.556 260.577C861.827 260.658 862.085 260.769 862.284 260.907C862.477 261.042 862.651 261.227 862.678 261.467C862.691 261.592 862.659 261.717 862.607 261.829C862.555 261.943 862.477 262.058 862.385 262.168C862.2 262.389 861.94 262.613 861.646 262.813C861.097 263.188 860.387 263.502 859.769 263.537L858.942 264.764C858.935 264.775 858.924 264.784 858.915 264.793C858.778 264.991 858.617 265.193 858.434 265.395C857.917 265.964 857.214 266.558 856.389 267.098C854.744 268.175 852.591 269.048 850.443 269.048C847.359 269.048 845.598 267.868 844.66 266.357C843.731 264.861 843.628 263.074 843.78 261.877L843.803 261.809C843.836 261.746 843.903 261.704 843.977 261.704H857.459C857.483 261.704 857.526 261.702 857.564 261.694C857.578 261.692 857.588 261.687 857.597 261.685C857.467 261.166 857.49 260.454 857.636 259.859C857.712 259.548 857.825 259.254 857.977 259.029C858.128 258.808 858.34 258.624 858.617 258.608L858.694 258.609Z" fill="#001018"/>
<rect x="844.119" y="256.229" width="11.4965" height="5.94647" stroke="black" stroke-width="0.792863" stroke-linejoin="round"/>
<path d="M846.101 257.419V260.987" stroke="#001018" stroke-width="0.792863" stroke-linejoin="round"/>
<path d="M848.48 257.419V260.987" stroke="#001018" stroke-width="0.792863" stroke-linejoin="round"/>
<path d="M850.859 257.419V260.987" stroke="#001018" stroke-width="0.792863" stroke-linejoin="round"/>
<path d="M853.237 257.419V260.987" stroke="#001018" stroke-width="0.792863" stroke-linejoin="round"/>
<path d="M866.735 268.139V257.383H874.487V259.736H869.655V261.584H874.088V263.937H869.655V265.786H874.466V268.139H866.735ZM880.704 257.383H883.582V264.756C883.578 265.457 883.402 266.073 883.052 266.605C882.705 267.134 882.225 267.547 881.613 267.845C881.003 268.139 880.301 268.286 879.507 268.286C878.817 268.286 878.187 268.167 877.616 267.929C877.045 267.687 876.59 267.309 876.25 266.794C875.911 266.276 875.743 265.604 875.746 264.777H878.666C878.677 265.047 878.722 265.275 878.803 265.46C878.887 265.646 879.002 265.786 879.149 265.88C879.3 265.971 879.482 266.017 879.696 266.017C879.913 266.017 880.095 265.97 880.242 265.875C880.392 265.781 880.506 265.641 880.583 265.455C880.66 265.266 880.7 265.033 880.704 264.756V257.383ZM885.302 268.139V257.383H889.966C890.785 257.383 891.473 257.493 892.03 257.714C892.59 257.934 893.012 258.246 893.295 258.649C893.582 259.051 893.726 259.526 893.726 260.072C893.726 260.467 893.638 260.828 893.463 261.154C893.292 261.479 893.05 261.752 892.739 261.973C892.427 262.19 892.063 262.341 891.646 262.425V262.53C892.108 262.547 892.529 262.664 892.907 262.882C893.285 263.095 893.586 263.391 893.81 263.769C894.034 264.144 894.146 264.585 894.146 265.093C894.146 265.681 893.992 266.204 893.684 266.663C893.379 267.122 892.945 267.482 892.382 267.745C891.818 268.007 891.146 268.139 890.365 268.139H885.302ZM888.222 265.807H889.588C890.078 265.807 890.445 265.716 890.69 265.534C890.936 265.348 891.058 265.075 891.058 264.714C891.058 264.462 891 264.249 890.885 264.074C890.769 263.899 890.605 263.766 890.391 263.675C890.181 263.584 889.927 263.538 889.63 263.538H888.222V265.807ZM888.222 261.731H889.419C889.675 261.731 889.901 261.691 890.097 261.611C890.293 261.53 890.445 261.415 890.554 261.264C890.666 261.11 890.722 260.923 890.722 260.702C890.722 260.369 890.603 260.116 890.365 259.94C890.127 259.762 889.826 259.673 889.461 259.673H888.222V261.731ZM905.559 261.416H902.596C902.575 261.171 902.519 260.949 902.428 260.749C902.341 260.55 902.218 260.378 902.061 260.235C901.907 260.088 901.719 259.975 901.499 259.898C901.278 259.818 901.028 259.778 900.748 259.778C900.258 259.778 899.843 259.897 899.503 260.135C899.167 260.373 898.911 260.714 898.736 261.159C898.565 261.604 898.479 262.138 898.479 262.761C898.479 263.419 898.567 263.97 898.742 264.415C898.92 264.856 899.177 265.189 899.514 265.413C899.85 265.634 900.254 265.744 900.727 265.744C900.996 265.744 901.238 265.711 901.452 265.644C901.665 265.574 901.851 265.474 902.008 265.345C902.166 265.215 902.294 265.059 902.392 264.877C902.493 264.692 902.561 264.483 902.596 264.252L905.559 264.273C905.524 264.728 905.396 265.192 905.175 265.665C904.955 266.134 904.641 266.568 904.235 266.968C903.832 267.363 903.333 267.682 902.738 267.923C902.143 268.165 901.452 268.286 900.664 268.286C899.676 268.286 898.791 268.074 898.006 267.65C897.226 267.227 896.608 266.603 896.152 265.781C895.701 264.958 895.475 263.951 895.475 262.761C895.475 261.563 895.706 260.555 896.168 259.736C896.63 258.913 897.254 258.291 898.038 257.871C898.822 257.448 899.697 257.236 900.664 257.236C901.343 257.236 901.968 257.329 902.539 257.514C903.109 257.7 903.61 257.971 904.041 258.328C904.471 258.682 904.818 259.118 905.081 259.636C905.343 260.154 905.503 260.748 905.559 261.416ZM909.681 268.139H906.53L910.08 257.383H914.072L917.622 268.139H914.471L912.118 260.345H912.034L909.681 268.139ZM909.093 263.895H915.017V266.08H909.093V263.895Z" fill="black"/>
<rect x="399.611" y="252.196" width="85.7644" height="20.8848" rx="2.01673" fill="white"/>
<path d="M421.305 258.609C421.485 258.623 421.659 258.715 421.807 258.829C421.981 258.963 422.149 259.148 422.294 259.35C422.527 259.673 422.722 260.074 422.787 260.431C423.197 260.38 423.72 260.443 424.167 260.577C424.437 260.658 424.696 260.769 424.895 260.907C425.088 261.042 425.261 261.227 425.288 261.467C425.302 261.592 425.269 261.717 425.218 261.829C425.166 261.943 425.088 262.058 424.995 262.168C424.811 262.389 424.551 262.613 424.257 262.813C423.707 263.188 422.997 263.502 422.38 263.537L421.553 264.764C421.545 264.775 421.535 264.784 421.525 264.793C421.389 264.991 421.228 265.193 421.045 265.395C420.528 265.964 419.824 266.558 419 267.098C417.354 268.175 415.202 269.048 413.054 269.048C409.969 269.048 408.209 267.868 407.271 266.357C406.342 264.861 406.238 263.074 406.391 261.877L406.413 261.809C406.447 261.746 406.513 261.704 406.588 261.704H420.069C420.094 261.704 420.136 261.702 420.175 261.694C420.189 261.692 420.199 261.687 420.207 261.685C420.077 261.166 420.101 260.454 420.246 259.859C420.322 259.548 420.436 259.254 420.588 259.029C420.739 258.808 420.95 258.624 421.228 258.608L421.305 258.609Z" fill="#001018"/>
<rect x="406.73" y="256.229" width="11.4965" height="5.94647" stroke="black" stroke-width="0.792863" stroke-linejoin="round"/>
<path d="M408.712 257.419V260.987" stroke="#001018" stroke-width="0.792863" stroke-linejoin="round"/>
<path d="M411.091 257.419V260.987" stroke="#001018" stroke-width="0.792863" stroke-linejoin="round"/>
<path d="M413.469 257.419V260.987" stroke="#001018" stroke-width="0.792863" stroke-linejoin="round"/>
<path d="M415.848 257.419V260.987" stroke="#001018" stroke-width="0.792863" stroke-linejoin="round"/>
<path d="M438.652 257.383V268.139H436.215L432.329 262.488H432.266V268.139H429.346V257.383H431.825L435.648 263.013H435.732V257.383H438.652ZM447.355 260.933C447.309 260.748 447.237 260.585 447.139 260.445C447.041 260.301 446.919 260.18 446.772 260.082C446.628 259.981 446.46 259.905 446.267 259.856C446.078 259.804 445.87 259.778 445.642 259.778C445.152 259.778 444.734 259.895 444.387 260.13C444.044 260.364 443.782 260.702 443.599 261.143C443.421 261.584 443.332 262.117 443.332 262.74C443.332 263.37 443.417 263.909 443.589 264.357C443.761 264.805 444.016 265.149 444.356 265.387C444.695 265.625 445.117 265.744 445.621 265.744C446.066 265.744 446.435 265.679 446.73 265.549C447.027 265.42 447.25 265.236 447.397 264.998C447.544 264.76 447.617 264.48 447.617 264.158L448.121 264.21H445.663V262.131H450.432V263.622C450.432 264.602 450.224 265.441 449.807 266.138C449.394 266.831 448.823 267.363 448.095 267.734C447.37 268.102 446.539 268.286 445.6 268.286C444.554 268.286 443.634 268.063 442.843 267.619C442.052 267.174 441.434 266.54 440.989 265.718C440.548 264.895 440.328 263.916 440.328 262.782C440.328 261.892 440.462 261.105 440.732 260.418C441.005 259.732 441.383 259.153 441.866 258.68C442.35 258.204 442.908 257.845 443.542 257.603C444.175 257.358 444.855 257.236 445.579 257.236C446.217 257.236 446.808 257.327 447.355 257.509C447.904 257.687 448.389 257.943 448.809 258.276C449.233 258.605 449.574 258.995 449.833 259.447C450.093 259.898 450.25 260.394 450.306 260.933H447.355ZM455.05 257.383V268.139H452.13V257.383H455.05ZM466.076 257.383V268.139H463.639L459.753 262.488H459.69V268.139H456.77V257.383H459.249L463.072 263.013H463.156V257.383H466.076ZM470.924 257.383L472.688 260.513H472.772L474.558 257.383H477.814L474.6 262.761L477.94 268.139H474.6L472.772 264.946H472.688L470.861 268.139H467.542L470.84 262.761L467.647 257.383H470.924Z" fill="black"/>
<defs>
<clipPath id="clip0_1_7335">
<rect width="100" height="100" fill="white" transform="translate(831 34)"/>
</clipPath>
</defs>
</svg>
